PathFileType	4	(X/Y/Z)	C:/Users/opensim2020/Desktop/walking_exp_matlab/subject01_walking11_straight_04.trc	
DataRate	CameraRate	NumFrames	NumMarkers	Units	OrigDataRate	OrigDataStartFrame	OrigNumFrames	
100.00	100.00	6	44	mm	100.00	4043	278	
Frame#	Time	LFHD			RFHD			LBHD			RBHD			C7			T10			CLAV			STRN			RBAK			LSHO			LUPA			LELB			LFRM			LWRA			LWRB			LFIN			RSHO			RUPA			RELB			RFRM			RWRA			RWRB			RFIN			LASI			RASI			LPSI			RPSI			LTHI			LKNE			LTIB			LANK			LHEE			LTOE			RTHI			RKNE			RTIB			RANK			RHEE			RTOE			*39			*40			*41			*42			*43			
		X1	Y1	Z1	X2	Y2	Z2	X3	Y3	Z3	X4	Y4	Z4	X5	Y5	Z5	X6	Y6	Z6	X7	Y7	Z7	X8	Y8	Z8	X9	Y9	Z9	X10	Y10	Z10	X11	Y11	Z11	X12	Y12	Z12	X13	Y13	Z13	X14	Y14	Z14	X15	Y15	Z15	X16	Y16	Z16	X17	Y17	Z17	X18	Y18	Z18	X19	Y19	Z19	X20	Y20	Z20	X21	Y21	Z21	X22	Y22	Z22	X23	Y23	Z23	X24	Y24	Z24	X25	Y25	Z25	X26	Y26	Z26	X27	Y27	Z27	X28	Y28	Z28	X29	Y29	Z29	X30	Y30	Z30	X31	Y31	Z31	X32	Y32	Z32	X33	Y33	Z33	X34	Y34	Z34	X35	Y35	Z35	X36	Y36	Z36	X37	Y37	Z37	X38	Y38	Z38	X39	Y39	Z39	X40	Y40	Z40	X41	Y41	Z41	X42	Y42	Z42	X43	Y43	Z43	X44	Y44	Z44	

174	1.730	-998.88788	-193.01668	1659.67554	-1105.52148	-235.36804	1662.60669	-1038.77954	-78.11889	1627.11304	-1151.86719	-120.35722	1630.13623	-1066.87390	-35.24748	1428.32336	-1078.67810	8.55634	1136.35474	-1067.63232	-175.85486	1355.66870	-1065.50562	-215.01315	1199.71631	-1144.92676	28.19779	1235.79883	-905.52850	-117.56595	1389.65967	-827.82605	-70.26006	1204.72693	-836.89349	-40.95723	1057.32788	-809.55865	-60.94416	946.55664	-822.47119	-122.93438	820.16016	-802.09552	-66.34335	824.21143	-790.45331	-102.37923	747.06165	-1216.08496	-107.12399	1387.76428	-1322.69678	-57.92885	1188.94434	-1331.14758	-73.20958	1063.14307	-1361.68555	-133.60172	957.18188	-1343.43823	-246.60217	871.95709	-1381.04407	-204.50876	858.34686	-1379.18665	-264.16840	795.75629	-977.62463	-158.81473	926.65424	-1195.12390	-149.78850	919.71368	-1020.53442	28.35255	943.65179	-1165.47595	33.03084	945.88153	-900.30322	-195.78622	611.69745	-918.16064	-224.22736	482.84668	-899.85925	-229.56311	298.80325	-941.54559	-281.39911	80.19094	-996.63049	-251.24243	35.80111	-932.54205	-428.42685	86.71383	-1236.80383	-59.45966	590.53241	-1209.43481	-47.50463	430.86127	-1211.56494	38.30807	276.45099	-1165.71960	111.38186	84.41800	-1117.76294	168.78920	52.80267	-1162.12817	-21.90028	35.71721	-1085.64148	-221.60092	1697.38281	-3101.98315	1973.08618	1023.32764	-3140.60034	2012.50403	1022.01068						 
175	1.740	-996.86298	-199.31403	1659.08252	-1103.44019	-241.79742	1662.03552	-1036.90063	-84.48898	1626.40625	-1149.85034	-126.84682	1629.53271	-1064.50464	-41.87698	1427.54980	-1076.91614	1.76395	1135.59070	-1065.85144	-182.33968	1354.97546	-1063.99524	-221.78114	1199.22888	-1143.15564	21.62258	1235.13196	-903.65228	-124.10842	1388.83105	-826.14294	-76.94723	1203.83362	-835.23016	-47.93039	1056.50696	-808.05505	-67.89499	945.56104	-821.14294	-129.91451	819.26813	-800.62439	-73.34348	823.30603	-789.20660	-109.47163	745.95184	-1214.16516	-113.64323	1387.19275	-1320.84021	-64.75321	1188.45569	-1329.38525	-80.08093	1062.68335	-1360.00793	-140.39726	956.71149	-1341.91968	-253.39774	871.31348	-1379.63257	-211.31308	857.92926	-1377.83362	-270.80502	795.13275	-976.58685	-166.63707	926.33545	-1194.21313	-156.48456	919.23114	-1018.81635	21.15346	942.90918	-1163.70349	26.17636	945.24500	-899.98956	-203.31610	610.91803	-917.69519	-231.18158	482.26898	-899.09161	-236.83275	297.98483	-940.80804	-287.79990	79.16414	-995.69397	-257.37375	34.71775	-932.87512	-434.76123	85.71635	-1236.10596	-65.14023	590.29810	-1209.07751	-52.51561	430.41794	-1211.18213	35.35538	277.04074	-1165.64233	110.51402	85.61095	-1117.87390	168.26576	54.57832	-1162.23120	-22.05256	35.76484	-1083.59998	-228.01886	1696.86719	-3101.91064	1973.10852	1023.48657	-3140.62964	2012.49573	1022.00690						 
176	1.750	-994.82166	-205.68294	1658.48315	-1101.40649	-248.23758	1661.47778	-1034.90332	-90.94790	1625.74304	-1147.86230	-133.30481	1628.89417	-1062.50452	-48.30173	1426.83679	-1075.08972	-5.07027	1134.84229	-1063.89575	-189.06740	1354.59717	-1062.35730	-228.54565	1198.73755	-1141.22290	14.96773	1234.47766	-901.70477	-130.75473	1388.03320	-824.29712	-83.82057	1202.91418	-833.43616	-55.02299	1055.52112	-806.35925	-75.03896	944.62854	-819.71686	-137.07629	818.36316	-799.08142	-80.61374	822.32489	-787.79987	-116.75212	745.03790	-1212.19775	-120.12210	1386.75635	-1318.85828	-71.51230	1187.95447	-1327.50781	-86.94172	1062.28784	-1358.28052	-147.04700	956.26550	-1340.37048	-259.94098	870.68323	-1377.89319	-217.71243	857.41620	-1376.22070	-277.17957	794.59314	-975.40851	-174.08124	925.73120	-1193.12866	-163.29189	918.84363	-1017.11780	13.84998	942.20563	-1161.97900	19.33291	944.70996	-899.78003	-210.70186	610.41766	-917.45416	-238.34576	481.63458	-898.40356	-243.36957	296.95609	-940.22034	-292.96396	77.95449	-994.92615	-261.85529	33.77003	-933.47699	-439.89090	84.06464	-1235.39453	-71.09058	590.05255	-1208.58154	-57.59831	430.22501	-1210.96252	32.01532	277.59320	-1165.87915	109.54630	87.11877	-1117.95972	167.67160	56.48972	-1162.31348	-22.18383	35.80004	-1081.54504	-234.37869	1696.22974	-3101.91846	1973.08899	1023.33807	-3140.79468	2012.57300	1022.06055						 
177	1.760	-992.62354	-211.89455	1658.08386	-1099.22742	-254.58539	1660.94482	-1032.19226	-97.30556	1624.98950	-1145.76489	-139.71370	1628.23486	-1060.64624	-54.71955	1426.18701	-1073.18811	-11.95488	1134.07581	-1061.98901	-195.58057	1354.14148	-1060.60754	-235.47000	1198.29907	-1139.16772	8.30013	1233.78406	-899.61786	-137.40353	1387.26428	-822.38092	-90.86091	1201.95105	-831.65564	-62.05185	1054.51465	-804.66400	-82.34052	943.70441	-818.24414	-144.50729	817.51825	-797.11487	-88.14113	821.34143	-786.18909	-124.19424	744.33868	-1210.28162	-126.53979	1386.36438	-1316.91614	-78.15199	1187.58508	-1325.56372	-93.65997	1061.87549	-1356.38269	-153.59126	955.78632	-1338.78442	-266.35950	870.08014	-1376.34412	-224.06189	856.84698	-1374.65417	-283.36951	793.93768	-974.14172	-181.70958	925.14935	-1191.96240	-170.29399	918.42297	-1015.38922	6.41265	941.47321	-1160.18726	12.23253	944.13354	-899.83423	-218.49319	609.80933	-917.28503	-245.64735	481.00229	-897.88568	-249.30965	295.77164	-939.78021	-296.83279	76.41273	-994.14331	-264.25378	33.16471	-933.94910	-443.61884	81.34353	-1234.38416	-77.31651	589.73328	-1207.99988	-63.17889	429.75537	-1210.76147	28.38218	278.26093	-1166.25879	108.86343	88.80257	-1118.53162	166.94984	58.93385	-1162.37732	-22.32945	35.77313	-1079.43628	-240.71191	1695.69958	-3101.82324	1973.16565	1023.43530	-3140.75977	2012.51599	1022.11005						 
178	1.770	-990.41345	-218.30460	1657.47046	-1097.08069	-260.93799	1660.37415	-1030.29749	-103.64882	1624.42725	-1143.66663	-146.10646	1627.63086	-1058.04126	-61.24375	1425.41113	-1071.15686	-19.03313	1133.24841	-1059.84668	-202.02299	1353.53491	-1058.74634	-242.36194	1197.96912	-1137.05627	1.63324	1233.05920	-897.43762	-144.09323	1386.46289	-820.34119	-97.89190	1201.04504	-829.65210	-69.28411	1053.62976	-802.88739	-89.79176	942.73645	-816.67993	-152.03630	816.60870	-795.36340	-95.78310	820.40240	-784.80768	-132.07596	743.21466	-1208.08630	-132.93420	1386.01318	-1314.80469	-84.89678	1187.25391	-1323.42151	-100.51863	1061.53748	-1354.59290	-159.93466	955.41815	-1337.05139	-272.57300	869.24469	-1374.67712	-230.20474	856.36615	-1373.17017	-289.32065	793.15747	-972.78168	-189.54605	924.62543	-1190.69214	-177.47713	918.13562	-1013.56171	-1.15679	940.70917	-1158.34570	4.94619	943.54938	-899.94550	-226.71559	609.13751	-917.34644	-252.94772	480.22803	-897.53619	-254.67632	294.33978	-939.83514	-299.37143	74.41235	-993.86859	-265.52448	32.64698	-934.62915	-446.09259	77.62326	-1233.54993	-83.84496	589.37634	-1207.53503	-68.95888	429.36850	-1210.50208	24.69972	279.10513	-1166.39075	107.62735	90.46509	-1118.67126	166.53076	61.40158	-1162.53833	-22.41386	35.74017	-1077.23572	-247.05492	1695.14221	-3101.87769	1973.20398	1023.43616	-3140.69336	2012.58276	1022.02850						 
179	1.780	-988.28271	-224.63235	1656.89124	-1094.80371	-267.28531	1659.83569	-1027.64343	-110.00803	1623.74390	-1141.36780	-152.48936	1626.94971	-1056.06482	-67.60358	1424.77197	-1069.07751	-26.18200	1132.42480	-1057.67859	-208.79811	1353.26025	-1056.81860	-249.31277	1197.61133	-1134.76746	-5.09849	1232.30945	-895.15186	-150.69633	1385.69031	-818.22729	-105.02185	1200.05542	-827.65540	-76.67503	1052.67285	-801.03888	-97.41859	941.78815	-815.02606	-159.83763	815.80621	-793.90619	-103.51845	819.47693	-783.24957	-139.93695	742.29730	-1205.81897	-139.36078	1385.55530	-1312.52563	-91.59801	1186.95776	-1321.45142	-106.91452	1061.27979	-1352.68481	-166.17464	955.03497	-1335.38354	-278.57156	868.55359	-1372.87671	-236.11353	855.70734	-1371.47656	-295.07071	792.37817	-971.40472	-197.32689	923.95569	-1189.22888	-184.85480	917.84314	-1011.72565	-8.79408	939.94415	-1156.44006	-2.51063	942.98645	-900.37457	-234.80598	608.44916	-917.36884	-260.35855	479.45102	-897.39984	-259.46924	292.82788	-940.28809	-300.50330	72.78904	-994.11115	-266.05417	31.67751	-935.26776	-447.65186	72.94998	-1232.67554	-90.66146	589.12891	-1206.99744	-74.98857	428.87799	-1210.50537	20.64515	279.85370	-1166.76306	106.49399	92.46994	-1119.27966	165.74493	64.16065	-1162.66760	-22.56830	35.76499	-1075.08350	-253.34985	1694.63965	-3102.09863	1973.02026	1023.51086	-3140.64136	2012.52319	1022.03528						 
